HIERARCHY
ROOT Hips
{
  OFFSET 122.81 95.2323 -46.7047
  CHANNELS 6 Xposition Yposition Zposition Zrotation Xrotation Yrotation
  JOINT RightUpLeg
  {
    OFFSET -8.9458 -8.66707 0.101652
    CHANNELS 3 Zrotation Xrotation Yrotation
    JOINT RightLeg
    {
      OFFSET 0 -44.4227 1.3727
      CHANNELS 3 Zrotation Xrotation Yrotation
      JOINT RightFoot
      {
        OFFSET 0.253549 -42.0924 -1.46059
        CHANNELS 3 Zrotation Xrotation Yrotation
        JOINT RightToes
        {
          OFFSET 0.04 -4.41509 8.4991
          CHANNELS 3 Zrotation Xrotation Yrotation
          End Site
          {
            OFFSET -0.08 -0.137448 9.77979
          }
        }
      }
    }
  }
  JOINT Spine
  {
    OFFSET 0 11.8905 0
    CHANNELS 3 Zrotation Xrotation Yrotation
    JOINT Spine1
    {
      OFFSET 0 25.6574 0.127663
      CHANNELS 3 Zrotation Xrotation Yrotation
      JOINT HEad
      {
        OFFSET 0 8.73416 0.011341
        CHANNELS 3 Zrotation Xrotation Yrotation
        End Site
        {
          OFFSET -0.29 12.7742 2.51395
        }
      }
      JOINT LeftShoulder1
      {
        OFFSET 8.99 -0.362252 -0.22
        CHANNELS 3 Zrotation Xrotation Yrotation
        JOINT LeftArm
        {
          OFFSET 10.2827 -0.00338 0.322123
          CHANNELS 3 Zrotation Xrotation Yrotation
          JOINT LeftForeArm
          {
            OFFSET 32.7669 0.099144 -1.42434
            CHANNELS 3 Zrotation Xrotation Yrotation
            JOINT LeftHand
            {
              OFFSET 27.5643 0.085362 1.02216
              CHANNELS 3 Zrotation Xrotation Yrotation
              End Site
              {
                OFFSET 16.7443 -0.6 1.50291
              }
            }
          }
        }
      }
      JOINT RightShoulder
      {
        OFFSET -8.99 -0.362252 -0.22
        CHANNELS 3 Zrotation Xrotation Yrotation
        JOINT RightArm
        {
          OFFSET -10.2827 -0.00338 0.322123
          CHANNELS 3 Zrotation Xrotation Yrotation
          JOINT RightForeArm
          {
            OFFSET -32.8971 0.099144 -1.42434
            CHANNELS 3 Zrotation Xrotation Yrotation
            JOINT RightHand
            {
              OFFSET -27.4921 0.085362 1.02216
              CHANNELS 3 Zrotation Xrotation Yrotation
              End Site
              {
                OFFSET -16.6312 -0.6 1.50291
              }
            }
          }
        }
      }
    }
  }
  JOINT LeftUpLeg
  {
    OFFSET 8.9458 -8.66707 0.101652
    CHANNELS 3 Zrotation Xrotation Yrotation
    JOINT LeftLeg
    {
      OFFSET 0 -44.4227 1.3727
      CHANNELS 3 Zrotation Xrotation Yrotation
      JOINT LeftFoot
      {
        OFFSET -0.253549 -42.0924 -1.46059
        CHANNELS 3 Zrotation Xrotation Yrotation
        JOINT LeftToes
        {
          OFFSET -0.04 -4.41509 8.4991
          CHANNELS 3 Zrotation Xrotation Yrotation
          End Site
          {
            OFFSET 0.08 -0.047448 9.77979
          }
        }
      }
    }
  }
}
MOTION
Frames:	22
Frame Time:	0.0166667
0.00000 96.00000 0.00000 0.00000 0.00000 0.00000 0.00000 0.00000 0.00000 0.00000 0.00000 0.00000 0.00000 0.00000 0.00000 0.00000 0.00000 0.00000 0.00000 0.00000 0.00000 0.00000 0.00000 0.00000 0.00000 0.00000 0.00000 0.00000 0.00000 0.00000 0.00000 0.00000 0.00000 0.00000 0.00000 0.00000 0.00000 0.00000 0.00000 0.00000 0.00000 0.00000 0.00000 0.00000 0.00000 0.00000 0.00000 0.00000 0.00000 0.00000 0.00000 0.00000 0.00000 0.00000 0.00000 0.00000 0.00000 0.00000 0.00000 0.00000 0.00000 0.00000 0.00000 
150.771 97.0343 -67.6404 -2.94839 0.0247955 -96.5646 -8.85527 -0.575363 0.398865 4.7566 26.266 -8.74241 3.42017 -18.7905 0.0942143 -6.3422 -11.2257 -0.0104728 0.234669 6.50151 2.72426 0.252939 12.9065 5.69042 -12.1884 -0.639809 4.80214 1.37935e-033 -1.98785e-016 3.97569e-016 -81.8376 -41.4139 -35.7002 13.2231 29.4996 -130.14 42.382 7.78571 -1.29795 15.2713 3.80758 18.5377 77.0269 -27.8699 42.1178 -16.0374 48.2768 138.579 -22.7605 15.729 -34.3126 17.2207 -19.5287 0.640558 2.5243 32.6396 -10.3651 -11.3178 8.47921 1.52615 6.208 -7.82418 2.18034 
150.541 97.2382 -68.1515 -2.94924 -0.505298 -96.4819 -9.01047 -0.208408 0.657902 4.61463 26.0103 -9.004 4.48578 -20.5446 0.260489 -4.42957 -7.89356 0.782833 -0.0523248 6.35022 2.74482 -0.151364 12.575 5.7581 -12.1643 -0.156588 5.03127 1.98785e-016 -5.36719e-015 7.95139e-016 -80.9811 -41.3019 -35.6331 13.0764 29.884 -129.782 42.4962 7.84543 -1.12363 15.2506 3.824 18.6478 76.7952 -27.7693 41.7577 -16.2556 47.906 138.869 -22.7351 15.7637 -34.5189 17.0227 -21.4031 0.953358 3.38002 34.5159 -11.2752 -13.6634 13.3582 2.40882 7.50508 -9.95772 -0.129913 
150.284 97.4086 -68.6053 -2.96855 -0.960822 -96.4624 -9.16424 0.18806 0.893401 4.5053 25.7221 -9.20195 5.44294 -21.9666 0.432947 -2.87546 -5.08676 1.36704 -0.324262 6.19533 2.8071 -0.514902 12.2351 5.90622 -12.1326 0.33791 5.19552 -7.95139e-016 -6.33626e-016 -0 -79.8641 -41.0513 -35.0743 12.7275 30.1717 -129.271 42.4726 7.80236 -1.24069 15.2761 3.85059 18.7664 76.4193 -27.7405 41.1746 -16.4415 47.4973 139.225 -22.5476 15.7922 -34.9156 16.9484 -23.269 1.29894 4.20023 36.3545 -12.1402 -16.2288 18.1034 3.52865 8.38002 -11.8613 -3.18199 
149.991 97.5308 -68.9976 -3.00979 -1.30726 -96.5395 -9.27481 0.584489 1.07197 4.39326 25.4579 -9.26755 6.17747 -22.9447 0.577006 -1.82894 -3.14821 1.74576 -0.556015 6.06795 2.90849 -0.79734 11.9513 6.1263 -12.163 0.723156 5.33783 3.97569e-016 -6.32384e-015 -0 -78.7213 -40.75 -34.1483 12.2179 30.3257 -128.622 42.2935 7.64792 -1.6763 15.3197 3.88009 18.8819 75.9555 -27.7369 40.5614 -16.5712 47.0905 139.561 -22.2183 15.8099 -35.4625 17.0566 -24.9819 1.59533 4.80554 38.0749 -12.8645 -18.8089 22.1927 4.77114 8.79212 -13.3842 -6.63065 
149.655 97.5879 -69.3305 -3.07247 -1.53418 -96.7042 -9.33076 0.937761 1.17992 4.28575 25.3092 -9.21565 6.65743 -23.4784 0.672712 -1.34629 -2.22218 2.01684 -0.727355 5.99 3.03686 -0.976204 11.7701 6.39444 -12.2813 0.911186 5.48907 -1.98785e-016 5.11871e-015 -3.97569e-016 -77.7975 -40.5087 -32.9836 11.6668 30.3901 -127.961 41.9884 7.43856 -2.28362 15.3515 3.89777 18.9451 75.5145 -27.7345 40.0773 -16.6311 46.7823 139.792 -21.8744 15.8137 -35.9746 17.3704 -26.445 1.76238 5.0149 39.6265 -13.4596 -21.1125 25.034 5.9012 8.8397 -14.38 -9.7192 
149.278 97.5681 -69.6104 -3.16555 -1.65395 -96.9078 -9.35781 1.22762 1.23875 4.25616 25.3456 -9.1455 6.84269 -23.5831 0.705195 -1.4549 -2.37727 2.24533 -0.830422 5.97285 3.17276 -1.04763 11.7172 6.67025 -12.4672 0.899174 5.65867 -1.98785e-016 -2.96935e-015 1.19271e-015 -77.2567 -40.3856 -31.668 11.2681 30.4243 -127.493 41.6709 7.27929 -2.76773 15.3501 3.89205 18.9156 75.2262 -27.748 39.8134 -16.6093 46.6966 139.861 -21.68 15.8071 -36.2254 17.8373 -27.6006 1.76489 4.76802 40.9163 -14.0096 -22.8086 26.2296 6.63628 8.69552 -14.7837 -11.7157 
148.873 97.4632 -69.8475 -3.31058 -1.68596 -97.0898 -9.3934 1.44827 1.29608 4.41198 25.6205 -9.20202 6.65114 -23.2596 0.659778 -2.16792 -3.65468 2.4091 -0.870709 6.02395 3.2956 -1.03042 11.8081 6.91403 -12.6645 0.739134 5.82494 -3.97569e-016 3.40419e-015 7.95139e-016 -77.0875 -40.2866 -30.2503 11.2274 30.3406 -127.368 41.4793 7.27643 -2.81164 15.3255 3.8671 18.8057 75.1539 -27.7892 39.7955 -16.4682 46.8833 139.736 -21.7287 15.8 -36.1169 18.3563 -28.4124 1.63003 4.18121 41.7654 -14.545 -23.6873 25.8234 6.82142 8.4834 -14.6549 -12.3969 
148.461 97.2704 -70.0508 -3.53783 -1.6422 -97.211 -9.46769 1.60796 1.40351 4.84465 26.1642 -9.52337 6.03801 -22.5448 0.53809 -3.42709 -5.94782 2.46384 -0.860388 6.14847 3.39375 -0.960661 12.0526 7.10598 -12.7999 0.47997 5.95544 -1.19271e-015 -1.11816e-015 1.59028e-015 -77.1201 -40.0304 -28.7777 11.6348 29.9168 -127.544 41.4343 7.47969 -2.26995 15.3164 3.83993 18.6678 75.2604 -27.8238 40.0045 -16.1864 47.2513 139.425 -21.999 15.8035 -35.7421 18.8333 -28.8428 1.41977 3.46763 41.9551 -14.9636 -23.7057 24.25 6.50321 8.21862 -14.0925 -12.0081 
148.054 96.9913 -70.2213 -3.86911 -1.5251 -97.2572 -9.59384 1.73258 1.58549 5.5829 26.9652 -10.1858 5.09188 -21.5622 0.371424 -5.08022 -8.94892 2.41848 -0.806252 6.34315 3.46589 -0.875536 12.4455 7.24669 -12.8035 0.158739 6.03254 -3.97569e-016 -2.80783e-015 7.95139e-016 -77.1709 -39.5366 -27.3265 12.3784 29.058 -127.811 41.3999 7.8629 -1.23604 15.3576 3.82519 18.5467 75.4782 -27.8002 40.4057 -15.829 47.6231 139.01 -22.38 15.8226 -35.2998 19.2146 -28.8663 1.19628 2.80683 41.335 -15.1006 -22.8916 22.0202 5.82842 7.83142 -13.1159 -10.8667 
147.647 96.6317 -70.3484 -4.29624 -1.33703 -97.2202 -9.75639 1.86901 1.80031 6.54069 27.9484 -11.1243 4.02682 -20.4713 0.205134 -6.95559 -12.3102 2.29432 -0.705288 6.58818 3.51486 -0.798592 12.9502 7.34512 -12.6326 -0.19083 6.03776 1.98785e-016 2.49723e-015 7.95139e-016 -77.1509 -38.9204 -25.9944 13.2116 28.0196 -127.963 41.245 8.36091 0.101015 15.4413 3.82353 18.4543 75.786 -27.7206 40.9651 -15.5453 47.8676 138.635 -22.7398 15.8536 -34.9587 19.4805 -28.5052 0.986841 2.26067 39.8952 -14.8597 -21.3109 19.3997 4.92918 7.14208 -11.5208 -9.03847 
147.219 96.207 -70.4131 -4.77546 -1.08526 -97.0935 -9.91719 2.07529 1.95418 7.53708 28.9791 -12.1299 3.05415 -19.3741 0.0700165 -8.93981 -15.7934 2.04382 -0.547256 6.84638 3.54432 -0.731752 13.4959 7.41235 -12.297 -0.547666 5.95103 -1.98785e-016 1.25483e-015 -0 -77.0297 -38.4042 -24.8472 13.8827 27.2898 -127.896 40.9679 8.8951 1.5428 15.5111 3.8233 18.3841 76.1866 -27.6528 41.6316 -15.4816 47.9613 138.442 -23.0037 15.8919 -34.7919 19.6375 -27.832 0.767699 1.77511 37.7478 -14.2406 -19.1584 16.3399 3.9126 5.85535 -8.94706 -6.36996 
146.742 95.7444 -70.3954 -5.24221 -0.78042 -96.8911 -10.0488 2.3956 1.98986 8.41823 29.9 -12.9933 2.27218 -18.3228 -0.0266815 -10.9481 -19.2033 1.59305 -0.320913 7.07362 3.56073 -0.660666 13.9975 7.46368 -11.8621 -0.896215 5.783 3.97569e-016 3.68994e-015 -0 -76.7806 -38.1947 -23.878 14.1914 27.2923 -127.544 40.6303 9.36503 2.82801 15.4985 3.8106 18.3282 76.651 -27.6671 42.3353 -15.6792 47.9508 138.494 -23.1578 15.9367 -34.8051 19.7112 -26.933 0.513561 1.28039 35.0431 -13.2566 -16.8239 12.7015 2.90263 3.72711 -5.29384 -2.84602 
146.192 95.2787 -70.2805 -5.62959 -0.431328 -96.66 -10.1437 2.83883 1.92725 9.11815 30.583 -13.6044 1.69586 -17.4229 -0.0893789 -12.8061 -22.2168 0.981486 -0.0270957 7.23041 3.5756 -0.567239 14.3767 7.51967 -11.4119 -1.20482 5.58669 -7.95139e-016 -6.75868e-015 7.95139e-016 -76.3703 -38.4104 -23.0114 13.9929 28.2077 -126.839 40.2718 9.66478 3.65884 15.3708 3.77866 18.282 77.118 -27.8008 43.0054 -16.0521 47.9116 138.751 -23.1911 15.981 -34.9761 19.7342 -25.883 0.256201 0.771885 31.9275 -11.8607 -14.7812 8.46003 2.0155 0.763048 -0.947455 1.17609 
145.553 94.8457 -70.0601 -5.87745 -0.0421681 -96.4741 -10.1923 3.3682 1.80723 9.594 30.9723 -13.8998 1.32932 -16.8303 -0.124442 -14.2529 -24.4523 0.382874 0.311575 7.28919 3.60326 -0.436364 14.5735 7.60078 -11.0115 -1.43821 5.44079 7.95139e-016 -1.98785e-015 -7.95139e-016 -75.7436 -39.0152 -22.1382 13.2248 29.8935 -125.71 39.8849 9.72585 3.82607 15.1379 3.72884 18.2418 77.5299 -28.0841 43.5835 -16.4594 47.9398 139.118 -23.0834 16.0049 -35.2372 19.7367 -24.7514 0.0725974 0.280502 28.5764 -9.98552 -13.3647 3.75462 1.29637 -2.73033 3.45534 5.10643 
144.811 94.4696 -69.7276 -5.93255 0.381653 -96.4238 -10.1863 3.89411 1.65991 9.79338 31.0974 -13.8251 1.1811 -16.6138 -0.13741 -15.1325 -25.751 -0.0610399 0.674282 7.23471 3.65597 -0.262233 14.5523 7.72193 -10.6995 -1.59938 5.41904 3.97569e-016 4.96962e-016 -7.95139e-016 -74.8022 -39.8103 -21.1512 11.9134 31.8994 -124.113 39.3663 9.54743 3.3028 14.8348 3.66594 18.1987 77.8471 -28.5176 44.0387 -16.778 48.1135 139.481 -22.8447 15.9871 -35.4755 19.7263 -23.6324 0.0517167 -0.156666 25.2598 -7.75727 -12.5856 -1.0884 0.716472 -6.22499 7.32865 8.4184 
143.953 94.1506 -69.272 -5.75892 0.813889 -96.6037 -10.1557 4.29086 1.52705 9.68994 31.0625 -13.366 1.24416 -16.6879 -0.132044 -15.524 -26.2821 -0.385894 1.05946 7.06333 3.74294 -0.0712989 14.3077 7.89315 -10.4962 -1.73646 5.5642 5.96354e-016 2.08724e-015 -2.38542e-015 -73.3977 -40.5648 -19.9482 10.1353 33.716 -122.124 38.5764 9.18751 2.21635 14.5092 3.59456 18.129 78.0225 -28.9801 44.3718 -16.9282 48.4166 139.735 -22.5446 15.9308 -35.6121 19.6551 -22.6856 0.26655 -0.48478 22.4058 -5.67391 -12.0548 -5.53825 0.242854 -9.12541 10.2451 10.8567 
142.996 93.9263 -68.7141 -5.33778 1.14726 -97.0662 -10.1841 4.48106 1.46341 9.259 30.8494 -12.5742 1.46427 -16.7832 -0.113706 -15.6503 -26.3768 -0.74908 1.30581 6.81385 3.86067 0.0755729 13.8701 8.11271 -10.4221 -1.89964 5.89121 -3.97569e-016 -1.2424e-015 -1.59028e-015 -71.3438 -41.189 -18.4255 8.0333 35.0577 -119.98 37.4866 8.7302 0.757194 14.1989 3.51676 18.0038 78.0166 -29.2459 44.6059 -16.892 48.7477 139.817 -22.3081 15.8717 -35.6479 19.3781 -21.9791 0.713479 -0.636702 20.159 -4.42062 -11.1292 -8.7356 -0.0688211 -10.965 11.9462 12.4885 
141.957 93.8068 -68.0656 -4.68716 1.32974 -97.8484 -10.3057 4.42063 1.48463 8.47408 30.4817 -11.4623 1.76924 -16.661 -0.090013 -15.723 -26.334 -1.29377 1.36989 6.51471 3.994 0.150046 13.2837 8.36001 -10.5099 -2.12429 6.40177 -7.95139e-016 9.93923e-016 -7.95139e-016 -68.4547 -41.7806 -16.5007 5.86646 35.8982 -118.031 36.1923 8.27022 -0.833675 13.8985 3.43156 17.8205 77.8708 -29.1636 44.7877 -16.7108 49.0357 139.726 -22.2296 15.8457 -35.6279 18.8456 -21.6166 1.33458 -0.540599 18.7197 -4.44765 -9.33157 -9.99237 -0.14778 -11.5203 12.3411 13.5215 
140.86 93.7857 -67.3362 -3.871 1.36729 -98.9905 -10.512 4.10915 1.58647 7.33719 30.007 -10.0093 2.08205 -16.1703 -0.0708071 -15.8527 -26.3139 -2.06629 1.27568 6.19469 4.13129 0.151741 12.612 8.61854 -10.7618 -2.45317 7.08917 -7.95139e-016 2.60905e-015 -0 -64.5885 -42.562 -14.1458 3.92229 36.3866 -116.57 34.8433 7.88958 -2.29936 13.5736 3.33771 17.6049 77.7377 -28.7834 44.992 -16.4359 49.3226 139.507 -22.2629 15.848 -35.5921 18.1238 -21.5785 2.06402 -0.120863 18.1028 -5.58725 -6.91104 -9.11143 -0.0491269 -10.8044 11.5197 14.0123 
139.742 93.8493 -66.5363 -2.98436 1.30801 -100.541 -10.7872 3.55633 1.76139 5.93174 29.5143 -8.21463 2.36984 -15.3001 -0.0616863 -16 -26.2867 -2.95503 1.07511 5.88969 4.27674 0.0832333 11.9436 8.89795 -11.1036 -2.93376 7.93889 -3.97569e-016 1.78906e-015 -1.19271e-015 -59.6933 -43.8443 -11.4115 2.30975 36.8097 -115.603 33.5753 7.6209 -3.48513 13.1975 3.23462 17.3788 77.8055 -28.2677 45.3146 -16.0904 49.6997 139.192 -22.2528 15.8359 -35.5455 17.3811 -21.7107 2.84537 0.618814 18.137 -7.02941 -4.8142 -6.72978 0.0643628 -9.17741 9.8713 13.8778 
138.642 93.9844 -65.6788 -2.12373 1.20665 -102.515 -11.14 2.7459 1.98114 4.43482 29.1488 -6.17266 2.64625 -14.1228 -0.0629448 -16.0665 -26.1676 -3.73847 0.793976 5.64352 4.43531 -0.059082 11.375 9.21034 -11.41 -3.59535 8.93157 -1.19271e-015 -2.13694e-015 -0 -53.815 -46.0227 -8.40543 0.870382 37.5425 -114.738 32.4581 7.44497 -4.39486 12.7556 3.12223 17.1546 78.169 -27.7028 45.8354 -15.6997 50.1687 138.771 -22.1194 15.7805 -35.4531 16.841 -21.875 3.60965 1.46068 18.6971 -7.77265 -3.84125 -4.11636 0.128545 -7.32891 8.04655 13.1647 
